<svg width="296" height="77" viewBox="0 0 296 77" fill="none" xmlns="http://www.w3.org/2000/svg">
<path d="M96.3367 16.6086C96.0907 15.8559 95.7665 15.1814 95.3643 14.5851C94.9693 13.9815 94.4962 13.4672 93.9448 13.0424C93.4008 12.6176 92.7823 12.2933 92.0894 12.0698C91.3965 11.8463 90.6364 11.7343 89.8093 11.7343C88.4532 11.7343 87.2201 12.0847 86.1099 12.7852C84.9996 13.4858 84.1166 14.5181 83.4609 15.882C82.8052 17.246 82.4773 18.919 82.4773 20.9016C82.4773 22.8841 82.8089 24.5572 83.472 25.9212C84.1352 27.2851 85.0331 28.3174 86.1657 29.0178C87.2983 29.7185 88.5725 30.0688 89.9882 30.0688C91.2996 30.0688 92.4545 29.7893 93.453 29.2303C94.4589 28.6638 95.2412 27.8664 95.8002 26.8379C96.3664 25.802 96.6495 24.5834 96.6495 23.1823L97.499 23.3611H90.6141V20.9016H99.332V23.3611C99.332 25.2467 98.9297 26.8864 98.1249 28.2801C97.3276 29.6737 96.2248 30.7545 94.8166 31.5222C93.4157 32.2823 91.8063 32.6624 89.9882 32.6624C87.9615 32.6624 86.1807 32.1855 84.6457 31.2315C83.1181 30.2774 81.926 28.921 81.0691 27.1622C80.2197 25.4031 79.7949 23.3164 79.7949 20.9016C79.7949 19.0905 80.0371 17.4621 80.5213 16.0161C81.0131 14.5628 81.7062 13.3256 82.6003 12.3045C83.4945 11.2835 84.5525 10.5009 85.7745 9.9569C86.9965 9.41274 88.3415 9.14074 89.8093 9.14074C91.0165 9.14074 92.1415 9.32333 93.1847 9.68852C94.2353 10.0463 95.1706 10.5568 95.9901 11.2201C96.8173 11.876 97.5064 12.6623 98.0578 13.579C98.6092 14.4883 98.9893 15.4981 99.1978 16.6086H96.3367ZM110.92 32.7071C109.265 32.7071 107.839 32.342 106.639 31.6116C105.447 30.8737 104.527 29.8452 103.878 28.5259C103.237 27.1993 102.917 25.6566 102.917 23.8977C102.917 22.1388 103.237 20.5885 103.878 19.2471C104.527 17.8981 105.428 16.8471 106.583 16.0944C107.745 15.3343 109.102 14.9541 110.651 14.9541C111.546 14.9541 112.428 15.1032 113.3 15.4013C114.172 15.6994 114.966 16.1838 115.681 16.8546C116.396 17.518 116.966 18.3974 117.391 19.493C117.816 20.5885 118.028 21.9375 118.028 23.5399V24.658H104.795V22.3773H115.346C115.346 21.4084 115.152 20.5438 114.764 19.7837C114.384 19.0234 113.84 18.4235 113.133 17.9837C112.432 17.5439 111.605 17.3242 110.651 17.3242C109.601 17.3242 108.692 17.585 107.924 18.1067C107.164 18.6209 106.579 19.2918 106.169 20.119C105.76 20.9463 105.555 21.8333 105.555 22.7798V24.3002C105.555 25.5971 105.778 26.6962 106.225 27.5982C106.68 28.4924 107.309 29.1745 108.114 29.644C108.919 30.106 109.854 30.3371 110.92 30.3371C111.613 30.3371 112.238 30.2403 112.797 30.0465C113.364 29.8452 113.852 29.547 114.261 29.1521C114.671 28.7496 114.988 28.2503 115.211 27.6541L117.76 28.3695C117.492 29.2341 117.041 29.9942 116.407 30.6501C115.774 31.2985 114.992 31.8054 114.06 32.1705C113.129 32.5283 112.082 32.7071 110.92 32.7071ZM129.507 15.1776V17.4136H120.61V15.1776H129.507ZM123.203 11.0636H125.841V27.4304C125.841 28.1757 125.949 28.7347 126.165 29.1074C126.388 29.4726 126.671 29.7185 127.014 29.8452C127.364 29.9645 127.733 30.0241 128.121 30.0241C128.411 30.0241 128.65 30.0092 128.836 29.9793C129.022 29.9421 129.171 29.9122 129.283 29.8899L129.82 32.26C129.641 32.327 129.391 32.3941 129.071 32.4611C128.75 32.5357 128.344 32.573 127.852 32.573C127.107 32.573 126.377 32.4128 125.662 32.0923C124.954 31.7718 124.365 31.2836 123.896 30.6278C123.434 29.9719 123.203 29.1445 123.203 28.146V11.0636ZM142.326 32.3494V15.1776H144.964V32.3494H142.326ZM143.668 12.3158C143.154 12.3158 142.71 12.1406 142.338 11.7902C141.972 11.44 141.79 11.0189 141.79 10.527C141.79 10.0351 141.972 9.61406 142.338 9.26368C142.71 8.91344 143.154 8.73828 143.668 8.73828C144.182 8.73828 144.621 8.91344 144.987 9.26368C145.359 9.61406 145.545 10.0351 145.545 10.527C145.545 11.0189 145.359 11.44 144.987 11.7902C144.621 12.1406 144.182 12.3158 143.668 12.3158ZM157.262 15.1776V17.4136H148.365V15.1776H157.262ZM150.958 11.0636H153.595V27.4304C153.595 28.1757 153.704 28.7347 153.92 29.1074C154.143 29.4726 154.426 29.7185 154.769 29.8452C155.119 29.9645 155.488 30.0241 155.876 30.0241C156.166 30.0241 156.404 30.0092 156.591 29.9793C156.777 29.9421 156.926 29.9122 157.038 29.8899L157.575 32.26C157.396 32.327 157.146 32.3941 156.826 32.4611C156.505 32.5357 156.099 32.573 155.607 32.573C154.862 32.573 154.132 32.4128 153.417 32.0923C152.709 31.7718 152.12 31.2836 151.651 30.6278C151.189 29.9719 150.958 29.1445 150.958 28.146V11.0636ZM189.752 20.9016C189.752 23.3164 189.316 25.4031 188.445 27.1622C187.573 28.921 186.377 30.2774 184.857 31.2315C183.336 32.1855 181.601 32.6624 179.649 32.6624C177.696 32.6624 175.961 32.1855 174.44 31.2315C172.92 30.2774 171.724 28.921 170.852 27.1622C169.98 25.4031 169.545 23.3164 169.545 20.9016C169.545 18.4868 169.98 16.3999 170.852 14.641C171.724 12.8822 172.92 11.5258 174.44 10.5717C175.961 9.61769 177.696 9.14074 179.649 9.14074C181.601 9.14074 183.336 9.61769 184.857 10.5717C186.377 11.5258 187.573 12.8822 188.445 14.641C189.316 16.3999 189.752 18.4868 189.752 20.9016ZM187.071 20.9016C187.071 18.919 186.739 17.246 186.075 15.882C185.42 14.5181 184.529 13.4858 183.404 12.7852C182.287 12.0847 181.034 11.7343 179.649 11.7343C178.263 11.7343 177.007 12.0847 175.882 12.7852C174.764 13.4858 173.874 14.5181 173.211 15.882C172.555 17.246 172.228 18.919 172.228 20.9016C172.228 22.8841 172.555 24.5572 173.211 25.9212C173.874 27.2851 174.764 28.3174 175.882 29.0178C177.007 29.7185 178.263 30.0688 179.649 30.0688C181.034 30.0688 182.287 29.7185 183.404 29.0178C184.529 28.3174 185.42 27.2851 186.075 25.9212C186.739 24.5572 187.071 22.8841 187.071 20.9016ZM196.694 22.0195V32.3494H194.055V15.1776H196.604V17.8608H196.828C197.229 16.9888 197.841 16.2881 198.661 15.7591C199.479 15.2223 200.539 14.9541 201.835 14.9541C202.997 14.9541 204.015 15.1926 204.887 15.6695C205.758 16.1391 206.435 16.8546 206.92 17.8161C207.405 18.77 207.647 19.9775 207.647 21.4382V32.3494H205.009V21.617C205.009 20.268 204.658 19.2172 203.958 18.4645C203.258 17.7042 202.296 17.3242 201.075 17.3242C200.233 17.3242 199.479 17.5068 198.817 17.872C198.161 18.2372 197.643 18.77 197.264 19.4706C196.883 20.1712 196.694 21.0209 196.694 22.0195Z" fill="black"/>
<path d="M98.5169 49.9598C98.3292 49.307 98.0654 48.7301 97.7257 48.2292C97.3859 47.7194 96.9701 47.2902 96.4784 46.9413C95.9955 46.5836 95.4411 46.3108 94.8153 46.123C94.1982 45.9352 93.5143 45.8412 92.7632 45.8412C91.3593 45.8412 90.1253 46.19 89.0614 46.8877C88.0064 47.5853 87.1836 48.6004 86.5935 49.933C86.0034 51.2567 85.7083 52.8754 85.7083 54.7894C85.7083 56.7033 85.999 58.331 86.5801 59.6726C87.1613 61.0142 87.9839 62.0381 89.048 62.7447C90.112 63.4424 91.3682 63.7912 92.8168 63.7912C94.1312 63.7912 95.2534 63.5585 96.1833 63.0935C97.1222 62.6194 97.8374 61.9531 98.3292 61.0946C98.8299 60.236 99.0803 59.2208 99.0803 58.0493L100.261 58.2237H93.1789V53.8503H104.673V57.3115C104.673 59.7263 104.163 61.8012 103.144 63.5362C102.125 65.2623 100.721 66.5949 98.9327 67.534C97.1445 68.4641 95.0968 68.9293 92.7899 68.9293C90.2149 68.9293 87.9527 68.3613 86.0034 67.2255C84.0542 66.0807 82.5342 64.4575 81.4433 62.3556C80.3613 60.2449 79.8203 57.7407 79.8203 54.843C79.8203 52.616 80.1423 50.6307 80.7861 48.8866C81.4389 47.1337 82.3508 45.649 83.5221 44.4327C84.6934 43.2163 86.057 42.2907 87.6129 41.6558C89.1687 41.0206 90.8541 40.7031 92.6692 40.7031C94.2251 40.7031 95.6736 40.9312 97.0148 41.3874C98.3561 41.8346 99.5452 42.4696 100.582 43.2923C101.629 44.1152 102.482 45.0945 103.144 46.2303C103.806 47.3572 104.231 48.6004 104.418 49.9598H98.5169ZM118.236 68.956C116.153 68.956 114.351 68.5134 112.831 67.628C111.32 66.7336 110.153 65.4904 109.331 63.8984C108.508 62.2975 108.097 60.4417 108.097 58.331C108.097 56.2024 108.508 54.3422 109.331 52.7503C110.153 51.1493 111.32 49.9061 112.831 49.0207C114.351 48.1265 116.153 47.6793 118.236 47.6793C120.32 47.6793 122.117 48.1265 123.628 49.0207C125.148 49.9061 126.319 51.1493 127.142 52.7503C127.965 54.3422 128.376 56.2024 128.376 58.331C128.376 60.4417 127.965 62.2975 127.142 63.8984C126.319 65.4904 125.148 66.7336 123.628 67.628C122.117 68.5134 120.32 68.956 118.236 68.956ZM118.263 64.5289C119.211 64.5289 120.002 64.2607 120.637 63.724C121.272 63.1785 121.75 62.4362 122.072 61.4971C122.403 60.558 122.568 59.4892 122.568 58.2907C122.568 57.0924 122.403 56.0236 122.072 55.0845C121.75 54.1454 121.272 53.4031 120.637 52.8575C120.002 52.3119 119.211 52.0391 118.263 52.0391C117.306 52.0391 116.502 52.3119 115.849 52.8575C115.205 53.4031 114.718 54.1454 114.387 55.0845C114.065 56.0236 113.904 57.0924 113.904 58.2907C113.904 59.4892 114.065 60.558 114.387 61.4971C114.718 62.4362 115.205 63.1785 115.849 63.724C116.502 64.2607 117.306 64.5289 118.263 64.5289ZM141.399 68.956C139.316 68.956 137.514 68.5134 135.994 67.628C134.483 66.7336 133.316 65.4904 132.493 63.8984C131.671 62.2975 131.259 60.4417 131.259 58.331C131.259 56.2024 131.671 54.3422 132.493 52.7503C133.316 51.1493 134.483 49.9061 135.994 49.0207C137.514 48.1265 139.316 47.6793 141.399 47.6793C143.482 47.6793 145.28 48.1265 146.791 49.0207C148.311 49.9061 149.482 51.1493 150.305 52.7503C151.127 54.3422 151.539 56.2024 151.539 58.331C151.539 60.4417 151.127 62.2975 150.305 63.8984C149.482 65.4904 148.311 66.7336 146.791 67.628C145.28 68.5134 143.482 68.956 141.399 68.956ZM141.426 64.5289C142.374 64.5289 143.165 64.2607 143.8 63.724C144.435 63.1785 144.913 62.4362 145.235 61.4971C145.566 60.558 145.731 59.4892 145.731 58.2907C145.731 57.0924 145.566 56.0236 145.235 55.0845C144.913 54.1454 144.435 53.4031 143.8 52.8575C143.165 52.3119 142.374 52.0391 141.426 52.0391C140.469 52.0391 139.664 52.3119 139.012 52.8575C138.368 53.4031 137.881 54.1454 137.55 55.0845C137.228 56.0236 137.067 57.0924 137.067 58.2907C137.067 59.4892 137.228 60.558 137.55 61.4971C137.881 62.4362 138.368 63.1785 139.012 63.724C139.664 64.2607 140.469 64.5289 141.426 64.5289ZM164.536 76.7101C162.683 76.7101 161.097 76.4552 159.774 75.9454C158.46 75.4447 157.413 74.7604 156.635 73.893C155.857 73.0253 155.352 72.0505 155.12 70.9683L160.405 70.2573C160.565 70.6688 160.82 71.0533 161.168 71.4111C161.517 71.7687 161.978 72.0551 162.55 72.2696C163.132 72.4933 163.837 72.605 164.669 72.605C165.913 72.605 166.936 72.3009 167.741 71.6927C168.555 71.0936 168.961 70.0875 168.961 68.6743V64.9045H168.72C168.47 65.477 168.094 66.018 167.593 66.5279C167.093 67.0377 166.449 67.4536 165.662 67.7755C164.876 68.0975 163.936 68.2584 162.846 68.2584C161.299 68.2584 159.89 67.9008 158.62 67.1852C157.36 66.4608 156.354 65.3563 155.603 63.8716C154.86 62.378 154.489 60.491 154.489 58.2103C154.489 55.8759 154.869 53.9263 155.629 52.3612C156.389 50.7961 157.401 49.6245 158.661 48.8463C159.929 48.0682 161.321 47.6793 162.831 47.6793C163.985 47.6793 164.951 47.876 165.729 48.2695C166.506 48.6541 167.132 49.137 167.606 49.7183C168.089 50.2908 168.46 50.8542 168.72 51.4087H168.934V47.9475H174.607V68.7549C174.607 70.5077 174.178 71.9745 173.32 73.155C172.462 74.3356 171.273 75.221 169.752 75.8113C168.242 76.4105 166.503 76.7101 164.536 76.7101ZM164.655 63.9656C165.577 63.9656 166.355 63.7375 166.989 63.2813C167.633 62.8162 168.125 62.1544 168.465 61.2958C168.813 60.4283 168.988 59.3908 168.988 58.1835C168.988 56.9761 168.818 55.9296 168.478 55.0442C168.138 54.15 167.647 53.4567 167.003 52.9648C166.36 52.473 165.577 52.2271 164.655 52.2271C163.717 52.2271 162.926 52.4819 162.282 52.9918C161.639 53.4925 161.151 54.1901 160.82 55.0845C160.49 55.9789 160.323 57.0118 160.323 58.1835C160.323 59.3729 160.49 60.4014 160.82 61.269C161.16 62.1275 161.646 62.7938 162.282 63.268C162.926 63.7329 163.717 63.9656 164.655 63.9656ZM184.868 41.0789V68.5535H179.154V41.0789H184.868ZM198.833 68.956C196.715 68.956 194.891 68.5268 193.361 67.6681C191.841 66.8006 190.67 65.5754 189.847 63.9923C189.024 62.4003 188.613 60.5177 188.613 58.3444C188.613 56.2248 189.024 54.3645 189.847 52.7637C190.67 51.1627 191.828 49.9151 193.322 49.0207C194.823 48.1265 196.584 47.6793 198.605 47.6793C199.964 47.6793 201.23 47.8984 202.4 48.3366C203.581 48.7658 204.61 49.4142 205.486 50.2818C206.371 51.1493 207.06 52.2405 207.551 53.5551C208.044 54.861 208.289 56.3903 208.289 58.1432V59.7127H190.894V56.1711H202.91C202.91 55.3483 202.732 54.6195 202.374 53.9844C202.016 53.3494 201.521 52.8531 200.885 52.4953C200.26 52.1287 199.532 51.9453 198.699 51.9453C197.832 51.9453 197.062 52.1465 196.392 52.549C195.731 52.9425 195.212 53.4747 194.837 54.1454C194.461 54.8073 194.269 55.5451 194.26 56.359V59.7263C194.26 60.7458 194.447 61.6268 194.823 62.369C195.207 63.1113 195.748 63.6838 196.446 64.0863C197.144 64.4886 197.97 64.69 198.927 64.69C199.561 64.69 200.144 64.6006 200.671 64.4216C201.198 64.2428 201.65 63.9744 202.026 63.6168C202.4 63.259 202.687 62.8208 202.883 62.3019L208.168 62.6508C207.9 63.9207 207.35 65.0298 206.519 65.9779C205.696 66.917 204.632 67.6503 203.326 68.178C202.031 68.6966 200.532 68.956 198.833 68.956ZM220.866 68.5535V41.0789H231.703C233.786 41.0789 235.561 41.4768 237.028 42.2728C238.495 43.0598 239.612 44.1554 240.382 45.5596C241.159 46.9547 241.548 48.5647 241.548 50.3892C241.548 52.2135 241.154 53.8235 240.367 55.2186C239.581 56.6139 238.441 57.7004 236.948 58.4787C235.464 59.2567 233.667 59.6457 231.556 59.6457H224.648V54.9905H230.617C231.734 54.9905 232.656 54.7983 233.38 54.4138C234.113 54.0203 234.658 53.4791 235.017 52.7904C235.383 52.0928 235.566 51.2924 235.566 50.3892C235.566 49.4769 235.383 48.6808 235.017 48.0012C234.658 47.3125 234.113 46.7803 233.38 46.4047C232.647 46.0202 231.717 45.8278 230.59 45.8278H226.673V68.5535H220.866ZM250.927 41.0789V68.5535H245.213V41.0789H250.927ZM261.378 68.9426C260.064 68.9426 258.891 68.7146 257.864 68.2584C256.836 67.7934 256.023 67.1092 255.423 66.2058C254.833 65.2936 254.537 64.1578 254.537 62.7984C254.537 61.6536 254.748 60.6921 255.168 59.9141C255.588 59.136 256.161 58.5098 256.885 58.0359C257.609 57.5619 258.432 57.2041 259.352 56.9627C260.282 56.7212 261.257 56.5512 262.276 56.4528C263.474 56.3277 264.44 56.2114 265.174 56.104C265.907 55.9879 266.439 55.8179 266.769 55.5943C267.1 55.3707 267.265 55.0398 267.265 54.6016V54.5211C267.265 53.6715 266.997 53.0141 266.461 52.549C265.934 52.084 265.183 51.8513 264.207 51.8513C263.18 51.8513 262.361 52.0794 261.754 52.5356C261.145 52.9828 260.744 53.5462 260.547 54.226L255.262 53.7966C255.53 52.5446 256.057 51.4624 256.844 50.5501C257.631 49.6289 258.646 48.9223 259.889 48.4304C261.14 47.9297 262.59 47.6793 264.234 47.6793C265.38 47.6793 266.475 47.8134 267.52 48.0816C268.576 48.35 269.511 48.7658 270.324 49.3294C271.146 49.8927 271.794 50.6171 272.268 51.5025C272.743 52.3791 272.979 53.43 272.979 54.6552V68.5535H267.561V65.6961H267.4C267.068 66.3401 266.626 66.908 266.072 67.3999C265.518 67.8828 264.851 68.263 264.074 68.5402C263.296 68.8085 262.398 68.9426 261.378 68.9426ZM263.014 64.9985C263.855 64.9985 264.596 64.8331 265.241 64.5022C265.885 64.1623 266.39 63.7062 266.757 63.1337C267.123 62.5614 267.306 61.913 267.306 61.1884V59.0017C267.126 59.1181 266.881 59.2254 266.568 59.3238C266.264 59.4132 265.919 59.4982 265.535 59.5786C265.152 59.6503 264.766 59.7173 264.382 59.78C263.998 59.8336 263.649 59.8827 263.335 59.9275C262.665 60.0258 262.08 60.1823 261.579 60.397C261.079 60.6117 260.689 60.9023 260.412 61.269C260.135 61.6268 259.996 62.0739 259.996 62.6106C259.996 63.3887 260.278 63.9834 260.841 64.3948C261.414 64.7973 262.138 64.9985 263.014 64.9985ZM280.202 76.2808C279.477 76.2808 278.799 76.2227 278.163 76.1064C277.536 75.9991 277.019 75.8605 276.608 75.6905L277.895 71.4245C278.566 71.6302 279.168 71.742 279.705 71.7599C280.251 71.7777 280.72 71.6526 281.114 71.3842C281.516 71.116 281.842 70.6598 282.092 70.0159L282.428 69.1438L275.037 47.9475H281.047L285.312 63.0802H285.526L289.832 47.9475H295.881L287.874 70.7805C287.489 71.8895 286.966 72.8555 286.304 73.6782C285.652 74.51 284.824 75.1495 283.823 75.5967C282.821 76.0527 281.614 76.2808 280.202 76.2808Z" fill="black"/>
<g filter="url(#filter0_dd_201_967)">
<path d="M1.34434 1.66514C0.499411 2.55964 0 3.94786 0 5.74558V69.9755C0 71.7761 0.499411 73.1614 1.34434 74.056L1.5592 74.265L37.5311 38.2845V37.8606V37.4366L1.5592 1.45312L1.34434 1.66514Z" fill="url(#paint0_linear_201_967)"/>
<path d="M49.52 50.2812L37.5312 38.2838V37.8599V37.4359L49.5228 25.4414L49.7929 25.5953L63.9999 33.6691C68.0561 35.975 68.0561 39.7475 63.9999 42.0564L49.7929 50.1303L49.52 50.2812Z" fill="url(#paint1_linear_201_967)"/>
<g filter="url(#filter1_d_201_967)">
<path d="M49.7922 50.1269L37.5276 37.8594L1.34375 74.0549C2.67938 75.472 4.88896 75.6463 7.37729 74.235L49.7922 50.1269Z" fill="url(#paint2_linear_201_967)"/>
</g>
<path d="M49.7922 25.5929L7.37729 1.48777C4.88896 0.0733975 2.67938 0.250559 1.34375 1.66782L37.5305 37.8633L49.7922 25.5929Z" fill="url(#paint3_linear_201_967)"/>
</g>
<defs>
<filter id="filter0_dd_201_967" x="0" y="0.361719" width="67.043" height="74.9992" filterUnits="userSpaceOnUse" color-interpolation-filters="sRGB">
<feFlood flood-opacity="0" result="BackgroundImageFix"/>
<feColorMatrix in="SourceAlpha" type="matrix" values="0 0 0 0 0 0 0 0 0 0 0 0 0 0 0 0 0 0 127 0" result="hardAlpha"/>
<feOffset dy="-0.15"/>
<feComposite in2="hardAlpha" operator="out"/>
<feColorMatrix type="matrix" values="0 0 0 0 0 0 0 0 0 0 0 0 0 0 0 0 0 0 0.12 0"/>
<feBlend mode="normal" in2="BackgroundImageFix" result="effect1_dropShadow_201_967"/>
<feColorMatrix in="SourceAlpha" type="matrix" values="0 0 0 0 0 0 0 0 0 0 0 0 0 0 0 0 0 0 127 0" result="hardAlpha"/>
<feOffset dy="0.15"/>
<feComposite in2="hardAlpha" operator="out"/>
<feColorMatrix type="matrix" values="0 0 0 0 1 0 0 0 0 1 0 0 0 0 1 0 0 0 0.25 0"/>
<feBlend mode="normal" in2="effect1_dropShadow_201_967" result="effect2_dropShadow_201_967"/>
<feBlend mode="normal" in="SourceGraphic" in2="effect2_dropShadow_201_967" result="shape"/>
</filter>
<filter id="filter1_d_201_967" x="1.34375" y="37.7094" width="48.4492" height="37.5016" filterUnits="userSpaceOnUse" color-interpolation-filters="sRGB">
<feFlood flood-opacity="0" result="BackgroundImageFix"/>
<feColorMatrix in="SourceAlpha" type="matrix" values="0 0 0 0 0 0 0 0 0 0 0 0 0 0 0 0 0 0 127 0" result="hardAlpha"/>
<feOffset dy="-0.15"/>
<feComposite in2="hardAlpha" operator="out"/>
<feColorMatrix type="matrix" values="0 0 0 0 0 0 0 0 0 0 0 0 0 0 0 0 0 0 0.08 0"/>
<feBlend mode="normal" in2="BackgroundImageFix" result="effect1_dropShadow_201_967"/>
<feBlend mode="normal" in="SourceGraphic" in2="effect1_dropShadow_201_967" result="shape"/>
</filter>
<linearGradient id="paint0_linear_201_967" x1="34.3425" y1="5.06599" x2="-14.3964" y2="53.793" gradientUnits="userSpaceOnUse">
<stop stop-color="#00A0FF"/>
<stop offset="0.0066" stop-color="#00A1FF"/>
<stop offset="0.2601" stop-color="#00BEFF"/>
<stop offset="0.5122" stop-color="#00D2FF"/>
<stop offset="0.7604" stop-color="#00DFFF"/>
<stop offset="1" stop-color="#00E3FF"/>
</linearGradient>
<linearGradient id="paint1_linear_201_967" x1="69.2799" y1="37.8599" x2="-0.973609" y2="37.8599" gradientUnits="userSpaceOnUse">
<stop stop-color="#FFE000"/>
<stop offset="0.4087" stop-color="#FFBD00"/>
<stop offset="0.7754" stop-color="#FFA500"/>
<stop offset="1" stop-color="#FF9C00"/>
</linearGradient>
<linearGradient id="paint2_linear_201_967" x1="43.1316" y1="44.5215" x2="-22.9642" y2="110.601" gradientUnits="userSpaceOnUse">
<stop stop-color="#FF3A44"/>
<stop offset="1" stop-color="#C31162"/>
</linearGradient>
<linearGradient id="paint3_linear_201_967" x1="-7.76928" y1="-19.7137" x2="21.7443" y2="9.79279" gradientUnits="userSpaceOnUse">
<stop stop-color="#32A071"/>
<stop offset="0.0685" stop-color="#2DA771"/>
<stop offset="0.4762" stop-color="#15CF74"/>
<stop offset="0.8009" stop-color="#06E775"/>
<stop offset="1" stop-color="#00F076"/>
</linearGradient>
</defs>
</svg>
