<svg width="351" height="117" viewBox="0 0 351 117" fill="none" xmlns="http://www.w3.org/2000/svg">
<path d="M81.1021 46.562L50.4147 15.8747C46.783 12.2429 40.8948 12.2429 37.263 15.8747L6.57567 46.562C2.94393 50.1938 2.94393 56.082 6.57567 59.7137L37.263 90.4011C40.8948 94.0328 46.783 94.0328 50.4147 90.4011L81.1021 59.7137C84.7338 56.082 84.7338 50.1938 81.1021 46.562Z" fill="#94C5FF"/>
<path d="M149.3 46.562L118.612 15.8747C114.981 12.2429 109.093 12.2429 105.461 15.8747L74.7734 46.562C71.1417 50.1938 71.1417 56.082 74.7734 59.7137L105.461 90.4011C109.092 94.0328 114.981 94.0328 118.612 90.4011L149.3 59.7137C152.932 56.082 152.932 50.1937 149.3 46.562Z" fill="#0092FF"/>
<mask id="mask0_95_1361" style="mask-type:alpha" maskUnits="userSpaceOnUse" x="3" y="13" width="81" height="81">
<path d="M81.103 46.562L50.4157 15.8747C46.784 12.2429 40.8957 12.2429 37.264 15.8747L6.57665 46.562C2.9449 50.1938 2.9449 56.082 6.57665 59.7137L37.264 90.4011C40.8957 94.0328 46.784 94.0328 50.4157 90.4011L81.103 59.7137C84.7348 56.082 84.7348 50.1938 81.103 46.562Z" fill="#CBCBCB"/>
</mask>
<g mask="url(#mask0_95_1361)">
<path d="M112.102 43.4624L81.4147 12.7751C77.783 9.14333 71.8948 9.14333 68.263 12.7751L37.5757 43.4624C33.9439 47.0942 33.9439 52.9824 37.5757 56.6141L68.263 87.3015C71.8948 90.9332 77.783 90.9332 81.4147 87.3015L112.102 56.6141C115.734 52.9824 115.734 47.0942 112.102 43.4624Z" fill="#1A32AF"/>
</g>
<mask id="mask1_95_1361" style="mask-type:alpha" maskUnits="userSpaceOnUse" x="72" y="13" width="81" height="81">
<path d="M149.302 46.562L118.615 15.8747C114.983 12.2429 109.095 12.2429 105.463 15.8747L74.7759 46.562C71.1441 50.1938 71.1441 56.082 74.7759 59.7137L105.463 90.4011C109.095 94.0328 114.983 94.0328 118.615 90.4011L149.302 59.7137C152.934 56.082 152.934 50.1938 149.302 46.562Z" fill="#AFAFAF"/>
</mask>
<g mask="url(#mask1_95_1361)">
<path d="M118.302 43.4624L87.6144 12.7751C83.9827 9.14333 78.0945 9.14333 74.4627 12.7751L43.7754 43.4624C40.1436 47.0942 40.1436 52.9824 43.7754 56.6141L74.4627 87.3015C78.0945 90.9332 83.9827 90.9332 87.6144 87.3015L118.302 56.6141C121.934 52.9824 121.934 47.0942 118.302 43.4624Z" fill="#1A32AF"/>
</g>
<path d="M115.202 37.2632L84.5143 6.57586C80.8826 2.94411 74.9944 2.94411 71.3626 6.57586L40.6753 37.2632C37.0435 40.8949 37.0435 46.7832 40.6753 50.4149L71.3626 81.1022C74.9944 84.734 80.8826 84.734 84.5143 81.1022L115.202 50.4149C118.833 46.7832 118.833 40.8949 115.202 37.2632Z" fill="#0055FF"/>
<path d="M174.256 19.7494H191.225L209.607 59.6226H208.603L226.985 19.7494H243.353V84.9326H231.4V33.4087H233.21L212.924 77.8016H205.187L185.001 33.6096H186.104V84.9326H174.256V19.7494ZM263.949 27.2821C261.636 27.2821 259.826 26.6795 258.524 25.4742C257.253 24.2355 256.614 22.5281 256.614 20.352C256.614 18.2428 257.253 16.5689 258.524 15.3302C259.826 14.058 261.636 13.4219 263.949 13.4219C266.224 13.4219 268.016 14.058 269.318 15.3302C270.626 16.5689 271.277 18.2428 271.277 20.352C271.277 22.5281 270.626 24.2355 269.318 25.4742C268.016 26.6795 266.224 27.2821 263.949 27.2821ZM258.022 84.9326V36.0201H269.869V84.9326H258.022ZM284.947 84.9326V16.0332H296.801V84.9326H284.947ZM310.527 84.9326V16.0332H322.381V84.9326H310.527ZM343.039 27.2821C340.727 27.2821 338.923 26.6795 337.614 25.4742C336.343 24.2355 335.705 22.5281 335.705 20.352C335.705 18.2428 336.343 16.5689 337.614 15.3302C338.923 14.058 340.727 13.4219 343.039 13.4219C345.314 13.4219 347.106 14.058 348.414 15.3302C349.716 16.5689 350.373 18.2428 350.373 20.352C350.373 22.5281 349.716 24.2355 348.414 25.4742C347.106 26.6795 345.314 27.2821 343.039 27.2821ZM337.112 84.9326V36.0201H348.966V84.9326H337.112Z" fill="black"/>
<path d="M172.539 116.555V97.6173H175.347V100.576H175.595C175.986 99.5653 176.624 98.7798 177.505 98.2212C178.385 97.6539 179.439 97.3706 180.673 97.3706C181.925 97.3706 182.96 97.6539 183.791 98.2212C184.628 98.7798 185.285 99.5653 185.75 100.576H185.949C186.432 99.5981 187.164 98.8213 188.131 98.246C189.104 97.6619 190.264 97.3706 191.621 97.3706C193.314 97.3706 194.697 97.9006 195.775 98.9608C196.854 100.013 197.393 101.653 197.393 103.88V116.555H194.48V103.88C194.48 102.483 194.101 101.484 193.333 100.884C192.57 100.284 191.671 99.9844 190.636 99.9844C189.303 99.9844 188.274 100.387 187.542 101.193C186.81 101.99 186.445 103.001 186.445 104.226V116.555H183.481V103.585C183.481 102.508 183.134 101.64 182.433 100.983C181.739 100.317 180.84 99.9844 179.737 99.9844C178.98 99.9844 178.273 100.186 177.616 100.588C176.965 100.991 176.438 101.55 176.035 102.265C175.645 102.972 175.446 103.79 175.446 104.719V116.555H172.539ZM208.286 116.998C207.084 116.998 205.993 116.772 205.019 116.32C204.04 115.86 203.265 115.198 202.688 114.335C202.112 113.464 201.826 112.412 201.826 111.179C201.826 110.094 202.037 109.215 202.465 108.541C202.893 107.858 203.463 107.324 204.176 106.938C204.895 106.552 205.683 106.264 206.544 106.075C207.419 105.877 208.293 105.722 209.173 105.606C210.32 105.458 211.256 105.347 211.969 105.273C212.695 105.191 213.221 105.056 213.55 104.867C213.885 104.678 214.052 104.348 214.052 103.88V103.782C214.052 102.565 213.724 101.62 213.054 100.946C212.397 100.272 211.399 99.9348 210.06 99.9348C208.671 99.9348 207.58 100.239 206.792 100.847C206.005 101.456 205.447 102.105 205.131 102.795L202.366 101.809C202.862 100.658 203.519 99.7624 204.337 99.1214C205.168 98.4716 206.073 98.0197 207.053 97.7649C208.038 97.502 209.006 97.3706 209.96 97.3706C210.568 97.3706 211.269 97.4443 212.056 97.5925C212.856 97.732 213.624 98.024 214.362 98.4679C215.112 98.9118 215.732 99.5814 216.222 100.477C216.718 101.373 216.966 102.573 216.966 104.077V116.555H214.052V113.99H213.903C213.711 114.401 213.383 114.841 212.918 115.309C212.459 115.778 211.845 116.176 211.083 116.505C210.32 116.834 209.384 116.998 208.286 116.998ZM208.727 114.385C209.88 114.385 210.847 114.158 211.641 113.706C212.434 113.254 213.036 112.671 213.438 111.956C213.848 111.241 214.052 110.489 214.052 109.699V107.037C213.928 107.184 213.662 107.32 213.24 107.443C212.831 107.559 212.354 107.661 211.808 107.751C211.275 107.834 210.754 107.908 210.246 107.973C209.743 108.031 209.334 108.08 209.024 108.122C208.268 108.22 207.561 108.38 206.904 108.602C206.253 108.816 205.726 109.141 205.323 109.576C204.932 110.004 204.734 110.587 204.734 111.327C204.734 112.338 205.106 113.102 205.856 113.62C206.613 114.13 207.567 114.385 208.727 114.385ZM222.273 116.555V97.6173H225.088V100.477H225.28C225.627 99.5405 226.253 98.7798 227.159 98.1964C228.064 97.613 229.08 97.321 230.215 97.321C230.426 97.321 230.692 97.3253 231.015 97.3334C231.337 97.3414 231.579 97.3538 231.74 97.3706V100.33C231.647 100.305 231.418 100.268 231.064 100.219C230.717 100.161 230.352 100.132 229.967 100.132C229.05 100.132 228.225 100.325 227.5 100.712C226.787 101.09 226.222 101.616 225.801 102.289C225.392 102.955 225.187 103.716 225.187 104.57V116.555H222.273ZM237.903 109.65L237.853 106.05H238.448L246.731 97.6173H250.333L241.505 106.543H241.257L237.903 109.65ZM235.193 116.555V91.3047H238.101V116.555H235.193ZM247.227 116.555L239.831 107.184L241.902 105.162L250.922 116.555H247.227ZM261.239 116.949C259.41 116.949 257.841 116.546 256.515 115.741C255.2 114.927 254.183 113.793 253.47 112.338C252.764 110.875 252.41 109.174 252.41 107.234C252.41 105.294 252.764 103.585 253.47 102.105C254.183 100.617 255.182 99.458 256.453 98.6279C257.736 97.7897 259.23 97.3706 260.941 97.3706C261.927 97.3706 262.9 97.5349 263.861 97.8634C264.822 98.1926 265.703 98.7264 266.49 99.4667C267.277 100.198 267.91 101.168 268.375 102.376C268.846 103.585 269.082 105.072 269.082 106.839V108.072H254.481V105.557H266.118C266.118 104.489 265.907 103.535 265.479 102.697C265.058 101.858 264.456 101.196 263.682 100.712C262.907 100.227 261.995 99.9844 260.941 99.9844C259.782 99.9844 258.777 100.272 257.934 100.847C257.097 101.415 256.453 102.154 256 103.066C255.547 103.979 255.318 104.957 255.318 106.001V107.678C255.318 109.108 255.566 110.32 256.062 111.314C256.558 112.301 257.252 113.053 258.145 113.571C259.032 114.08 260.061 114.335 261.239 114.335C262.001 114.335 262.689 114.228 263.309 114.014C263.936 113.793 264.469 113.464 264.921 113.028C265.374 112.585 265.727 112.034 265.969 111.376L268.784 112.165C268.486 113.119 267.99 113.957 267.29 114.68C266.595 115.396 265.727 115.954 264.704 116.357C263.675 116.752 262.522 116.949 261.239 116.949ZM281.741 97.6173V100.083H271.927V97.6173H281.741ZM274.785 93.0797H277.699V111.13C277.699 111.952 277.817 112.568 278.053 112.979C278.301 113.382 278.611 113.653 278.989 113.793C279.379 113.925 279.782 113.99 280.21 113.99C280.532 113.99 280.793 113.974 281.004 113.941C281.208 113.9 281.369 113.867 281.493 113.842L282.089 116.456C281.89 116.53 281.611 116.604 281.258 116.678C280.904 116.76 280.458 116.801 279.919 116.801C279.094 116.801 278.288 116.625 277.501 116.271C276.72 115.918 276.069 115.379 275.554 114.656C275.039 113.933 274.785 113.02 274.785 111.919V93.0797Z" fill="black"/>
</svg>
