<svg width="325" height="84" viewBox="0 0 325 84" fill="none" xmlns="http://www.w3.org/2000/svg">
<path d="M54.5615 41.8542C54.6402 35.7788 57.9292 30.0299 63.1445 26.8476C59.8539 22.1841 54.3428 19.2274 48.6082 19.0492C42.4929 18.4122 36.5648 22.681 33.4488 22.681C30.2715 22.681 25.4733 19.1125 20.3069 19.2181C13.5715 19.4339 7.29242 23.2339 4.01599 29.0773C-3.0263 41.1792 2.22668 58.9652 8.97312 68.7476C12.3503 73.5376 16.294 78.8884 21.4572 78.6987C26.5088 78.4908 28.3957 75.5019 34.4922 75.5019C40.5336 75.5019 42.304 78.6987 47.5712 78.578C52.991 78.4908 56.4059 73.7667 59.6634 68.9311C62.0885 65.5179 63.9549 61.7456 65.1934 57.7539C58.8231 55.0802 54.5694 48.7183 54.5615 41.8542Z" fill="black"/>
<path d="M44.6141 12.616C47.5695 9.09495 49.0252 4.56925 48.6727 0C44.1578 0.47065 39.9859 2.6123 36.9911 5.99825C34.0609 9.30649 32.5376 13.7526 32.8256 18.1472C37.3421 18.1933 41.783 16.1097 44.6141 12.616Z" fill="black"/>
<path d="M84.4706 39.3527H77.4062V16.457H84.7838C87.0043 16.457 88.9037 16.9154 90.4837 17.8321C92.0637 18.7415 93.2738 20.0494 94.1158 21.7562C94.9577 23.4555 95.3795 25.4902 95.3795 27.8603C95.3795 30.2451 94.9546 32.2985 94.1048 34.0201C93.255 35.7342 92.0181 37.0535 90.394 37.9776C88.7699 38.8944 86.7949 39.3527 84.4706 39.3527ZM80.1791 36.8932H84.2912C86.1843 36.8932 87.7533 36.528 88.9966 35.7977C90.2413 35.0673 91.1698 34.0276 91.7804 32.6785C92.391 31.3295 92.6963 29.7235 92.6963 27.8603C92.6963 26.0118 92.3957 24.4206 91.7914 23.0866C91.1871 21.745 90.287 20.7165 89.0863 20.0011C87.8871 19.2781 86.3936 18.9165 84.6043 18.9165H80.1791V36.8932ZM106.646 39.7105C105.095 39.7105 103.736 39.3415 102.567 38.6036C101.404 37.8659 100.494 36.8336 99.8393 35.5069C99.1909 34.1803 98.8668 32.6302 98.8668 30.8563C98.8668 29.0676 99.1909 27.5062 99.8393 26.1721C100.494 24.838 101.404 23.802 102.567 23.0642C103.736 22.3263 105.095 21.9575 106.646 21.9575C108.196 21.9575 109.552 22.3263 110.714 23.0642C111.884 23.802 112.792 24.838 113.441 26.1721C114.097 27.5062 114.424 29.0676 114.424 30.8563C114.424 32.6302 114.097 34.1803 113.441 35.5069C112.792 36.8336 111.884 37.8659 110.714 38.6036C109.552 39.3415 108.196 39.7105 106.646 39.7105ZM106.646 37.3404C107.823 37.3404 108.792 37.0385 109.552 36.4349C110.311 35.8312 110.874 35.0374 111.239 34.0536C111.604 33.0698 111.787 32.004 111.787 30.8563C111.787 29.7085 111.604 28.6391 111.239 27.6478C110.874 26.6566 110.311 25.8554 109.552 25.2441C108.792 24.6331 107.823 24.3274 106.646 24.3274C105.468 24.3274 104.499 24.6331 103.739 25.2441C102.979 25.8554 102.417 26.6566 102.052 27.6478C101.687 28.6391 101.504 29.7085 101.504 30.8563C101.504 32.004 101.687 33.0698 102.052 34.0536C102.417 35.0374 102.979 35.8312 103.739 36.4349C104.499 37.0385 105.468 37.3404 106.646 37.3404ZM121.756 39.3527L116.525 22.181H119.298L123.009 35.3281H123.187L126.853 22.181H129.67L133.291 35.2834H133.469L137.18 22.181H139.953L134.722 39.3527H132.128L128.374 26.1609H128.104L124.35 39.3527H121.756ZM146.078 29.0229V39.3527H143.44V22.181H145.988V24.8642H146.211C146.614 23.9921 147.225 23.2915 148.045 22.7623C148.865 22.2257 149.922 21.9575 151.219 21.9575C152.38 21.9575 153.398 22.1959 154.27 22.6729C155.142 23.1424 155.82 23.8579 156.304 24.8193C156.788 25.7733 157.031 26.9808 157.031 28.4416V39.3527H154.393V28.6204C154.393 27.2714 154.042 26.2205 153.342 25.4678C152.642 24.7075 151.68 24.3274 150.459 24.3274C149.617 24.3274 148.865 24.51 148.201 24.8753C147.544 25.2405 147.027 25.7733 146.647 26.474C146.267 27.1746 146.078 28.0241 146.078 29.0229ZM164.488 16.457V39.3527H161.851V16.457H164.488ZM176.294 39.7105C174.744 39.7105 173.384 39.3415 172.214 38.6036C171.052 37.8659 170.143 36.8336 169.486 35.5069C168.84 34.1803 168.515 32.6302 168.515 30.8563C168.515 29.0676 168.84 27.5062 169.486 26.1721C170.143 24.838 171.052 23.802 172.214 23.0642C173.384 22.3263 174.744 21.9575 176.294 21.9575C177.844 21.9575 179.199 22.3263 180.362 23.0642C181.531 23.802 182.441 24.838 183.089 26.1721C183.746 27.5062 184.073 29.0676 184.073 30.8563C184.073 32.6302 183.746 34.1803 183.089 35.5069C182.441 36.8336 181.531 37.8659 180.362 38.6036C179.199 39.3415 177.844 39.7105 176.294 39.7105ZM176.294 37.3404C177.471 37.3404 178.439 37.0385 179.199 36.4349C179.959 35.8312 180.523 35.0374 180.888 34.0536C181.253 33.0698 181.435 32.004 181.435 30.8563C181.435 29.7085 181.253 28.6391 180.888 27.6478C180.523 26.6566 179.959 25.8554 179.199 25.2441C178.439 24.6331 177.471 24.3274 176.294 24.3274C175.117 24.3274 174.148 24.6331 173.388 25.2441C172.628 25.8554 172.066 26.6566 171.701 27.6478C171.335 28.6391 171.153 29.7085 171.153 30.8563C171.153 32.004 171.335 33.0698 171.701 34.0536C172.066 35.0374 172.628 35.8312 173.388 36.4349C174.148 37.0385 175.117 37.3404 176.294 37.3404ZM193.152 39.7552C192.063 39.7552 191.076 39.5503 190.19 39.1404C189.302 38.7229 188.599 38.1231 188.076 37.3404C187.556 36.5504 187.294 35.5964 187.294 34.4784C187.294 33.4947 187.488 32.6972 187.875 32.086C188.264 31.4674 188.782 30.9831 189.43 30.6327C190.078 30.2824 190.793 30.0216 191.575 29.8502C192.365 29.6712 193.158 29.5297 193.956 29.4254C194.999 29.2912 195.844 29.1905 196.493 29.1234C197.149 29.049 197.626 28.9259 197.923 28.7545C198.23 28.5831 198.383 28.2849 198.383 27.8603V27.7707C198.383 26.6677 198.08 25.8106 197.476 25.1994C196.881 24.5884 195.975 24.2827 194.76 24.2827C193.501 24.2827 192.514 24.5585 191.798 25.11C191.084 25.6616 190.58 26.2503 190.291 26.8765L187.787 25.9821C188.234 24.9386 188.83 24.1262 189.575 23.5449C190.327 22.9561 191.147 22.5462 192.033 22.3151C192.928 22.0766 193.806 21.9575 194.672 21.9575C195.223 21.9575 195.855 22.0245 196.571 22.1586C197.294 22.2854 197.991 22.55 198.661 22.9524C199.339 23.3548 199.901 23.9622 200.35 24.7746C200.797 25.587 201.02 26.6751 201.02 28.0391V39.3527H198.383V37.0273H198.247C198.069 37.4001 197.77 37.7988 197.353 38.2236C196.936 38.6485 196.381 39.0099 195.688 39.308C194.996 39.6061 194.149 39.7552 193.152 39.7552ZM193.553 37.3851C194.596 37.3851 195.476 37.1802 196.192 36.7703C196.914 36.3604 197.457 35.8312 197.822 35.1828C198.195 34.5343 198.383 33.8524 198.383 33.1369V30.7221C198.271 30.8563 198.024 30.9793 197.645 31.091C197.272 31.1954 196.839 31.2886 196.348 31.3706C195.863 31.4451 195.391 31.5121 194.928 31.5718C194.474 31.624 194.105 31.6687 193.822 31.7059C193.136 31.7954 192.495 31.9407 191.899 32.1419C191.31 32.3357 190.834 32.6302 190.468 33.0251C190.111 33.4126 189.932 33.9418 189.932 34.6126C189.932 35.5293 190.272 36.2225 190.95 36.6921C191.635 37.1541 192.503 37.3851 193.553 37.3851ZM212.316 39.7105C210.886 39.7105 209.624 39.3489 208.528 38.6261C207.433 37.8956 206.575 36.8671 205.957 35.5405C205.338 34.2064 205.03 32.6302 205.03 30.8116C205.03 29.0079 205.338 27.4428 205.957 26.1162C206.575 24.7895 207.436 23.7648 208.539 23.0419C209.642 22.3189 210.916 21.9575 212.362 21.9575C213.479 21.9575 214.362 22.1437 215.01 22.5164C215.666 22.8816 216.165 23.2989 216.508 23.7684C216.858 24.2306 217.13 24.6107 217.324 24.9089H217.547V16.457H220.185V39.3527H217.637V36.7144H217.324C217.13 37.0273 216.855 37.4224 216.497 37.8994C216.139 38.3689 215.629 38.79 214.966 39.1627C214.302 39.5279 213.419 39.7105 212.316 39.7105ZM212.675 37.3404C213.732 37.3404 214.626 37.0646 215.356 36.5131C216.087 35.9541 216.642 35.1828 217.021 34.1991C217.402 33.2077 217.593 32.0637 217.593 30.7669C217.593 29.485 217.405 28.3633 217.034 27.4019C216.661 26.4329 216.109 25.6802 215.379 25.1436C214.648 24.5996 213.747 24.3274 212.675 24.3274C211.556 24.3274 210.626 24.6144 209.88 25.1883C209.142 25.7548 208.588 26.5261 208.215 27.5025C207.85 28.4713 207.667 29.5595 207.667 30.7669C207.667 31.9892 207.853 33.0997 208.226 34.0983C208.605 35.0897 209.166 35.8797 209.902 36.4684C210.648 37.0497 211.572 37.3404 212.675 37.3404ZM241.209 39.7105C239.659 39.7105 238.299 39.3415 237.129 38.6036C235.967 37.8659 235.058 36.8336 234.401 35.5069C233.755 34.1803 233.43 32.6302 233.43 30.8563C233.43 29.0676 233.755 27.5062 234.401 26.1721C235.058 24.838 235.967 23.802 237.129 23.0642C238.299 22.3263 239.659 21.9575 241.209 21.9575C242.759 21.9575 244.114 22.3263 245.277 23.0642C246.446 23.802 247.356 24.838 248.004 26.1721C248.661 27.5062 248.988 29.0676 248.988 30.8563C248.988 32.6302 248.661 34.1803 248.004 35.5069C247.356 36.8336 246.446 37.8659 245.277 38.6036C244.114 39.3415 242.759 39.7105 241.209 39.7105ZM241.209 37.3404C242.386 37.3404 243.354 37.0385 244.114 36.4349C244.874 35.8312 245.438 35.0374 245.803 34.0536C246.168 33.0698 246.35 32.004 246.35 30.8563C246.35 29.7085 246.168 28.6391 245.803 27.6478C245.438 26.6566 244.874 25.8554 244.114 25.2441C243.354 24.6331 242.386 24.3274 241.209 24.3274C240.032 24.3274 239.063 24.6331 238.303 25.2441C237.542 25.8554 236.981 26.6566 236.616 27.6478C236.25 28.6391 236.068 29.7085 236.068 30.8563C236.068 32.004 236.25 33.0698 236.616 34.0536C236.981 35.0374 237.542 35.8312 238.303 36.4349C239.063 37.0385 240.032 37.3404 241.209 37.3404ZM255.653 29.0229V39.3527H253.013V22.181H255.563V24.8642H255.786C256.189 23.9921 256.8 23.2915 257.62 22.7623C258.438 22.2257 259.497 21.9575 260.794 21.9575C261.955 21.9575 262.973 22.1959 263.845 22.6729C264.717 23.1424 265.394 23.8579 265.878 24.8193C266.363 25.7733 266.605 26.9808 266.605 28.4416V39.3527H263.968V28.6204C263.968 27.2714 263.617 26.2205 262.917 25.4678C262.216 24.7075 261.255 24.3274 260.034 24.3274C259.192 24.3274 258.438 24.51 257.775 24.8753C257.119 25.2405 256.602 25.7733 256.222 26.474C255.841 27.1746 255.653 28.0241 255.653 29.0229ZM287.743 22.181V24.417H278.847V22.181H287.743ZM281.439 18.067H284.077V34.4337C284.077 35.1791 284.185 35.738 284.401 36.1106C284.626 36.4758 284.908 36.7218 285.251 36.8485C285.602 36.9677 285.97 37.0273 286.357 37.0273C286.648 37.0273 286.887 37.0126 287.073 36.9826C287.259 36.9453 287.408 36.9156 287.52 36.8932L288.057 39.2633C287.877 39.3304 287.628 39.3974 287.307 39.4645C286.986 39.5391 286.58 39.5762 286.089 39.5762C285.343 39.5762 284.613 39.416 283.899 39.0955C283.191 38.775 282.602 38.2869 282.133 37.631C281.67 36.9752 281.439 36.1479 281.439 35.1492V18.067ZM294.718 29.0229V39.3527H292.08V16.457H294.718V24.8642H294.941C295.344 23.9772 295.947 23.2729 296.751 22.7511C297.565 22.2221 298.644 21.9575 299.993 21.9575C301.162 21.9575 302.188 22.1922 303.066 22.6617C303.946 23.1239 304.628 23.8355 305.112 24.7969C305.603 25.751 305.85 26.9659 305.85 28.4416V39.3527H303.213V28.6204C303.213 27.2564 302.859 26.202 302.151 25.4566C301.45 24.7039 300.478 24.3274 299.233 24.3274C298.369 24.3274 297.595 24.51 296.909 24.8753C296.23 25.2405 295.694 25.7733 295.299 26.474C294.912 27.1746 294.718 28.0241 294.718 29.0229ZM317.873 39.7105C316.219 39.7105 314.792 39.3453 313.593 38.6148C312.4 37.877 311.479 36.8485 310.833 35.5293C310.191 34.2027 309.871 32.6599 309.871 30.901C309.871 29.1422 310.191 27.5919 310.833 26.2503C311.479 24.9013 312.381 23.8505 313.536 23.0977C314.699 22.3375 316.056 21.9575 317.606 21.9575C318.5 21.9575 319.383 22.1065 320.254 22.4047C321.126 22.7026 321.919 23.1871 322.635 23.8579C323.35 24.5213 323.919 25.4008 324.344 26.4963C324.769 27.5919 324.982 28.9409 324.982 30.5433V31.6612H311.749V29.3807H322.299C322.299 28.4117 322.105 27.5472 321.718 26.7869C321.339 26.0268 320.794 25.4267 320.086 24.9871C319.386 24.5473 318.559 24.3274 317.606 24.3274C316.555 24.3274 315.645 24.5884 314.879 25.11C314.118 25.6243 313.533 26.295 313.124 27.1223C312.713 27.9497 312.509 28.8365 312.509 29.7831V31.3035C312.509 32.6003 312.732 33.6996 313.179 34.6014C313.634 35.4958 314.263 36.1778 315.067 36.6472C315.873 37.1094 316.808 37.3404 317.873 37.3404C318.566 37.3404 319.192 37.2435 319.751 37.0497C320.317 36.8485 320.805 36.5504 321.216 36.1555C321.625 35.753 321.941 35.2535 322.165 34.6573L324.714 35.3728C324.445 36.2373 323.995 36.9976 323.361 37.6535C322.728 38.3019 321.946 38.8087 321.014 39.1739C320.083 39.5315 319.036 39.7105 317.873 39.7105Z" fill="black"/>
<path d="M80.1829 75.5574H73.959L83.442 48.0828H90.925L100.394 75.5574H94.1715L87.2913 54.3611H87.0757L80.1829 75.5574ZM79.7927 64.758H94.4925V69.2925H79.7927V64.758ZM103.593 83.2847V54.9514H109.227V58.4126H109.48C109.732 57.8581 110.094 57.2946 110.568 56.7222C111.051 56.1409 111.676 55.658 112.445 55.2733C113.223 54.8798 114.189 54.683 115.342 54.683C116.844 54.683 118.23 55.0765 119.5 55.8636C120.77 56.6418 121.785 57.8178 122.545 59.3919C123.305 60.957 123.685 62.9201 123.685 65.2813C123.685 67.5797 123.313 69.5206 122.572 71.1036C121.839 72.6777 120.836 73.8716 119.568 74.6854C118.306 75.4904 116.894 75.8929 115.328 75.8929C114.22 75.8929 113.276 75.7095 112.499 75.3427C111.729 74.9761 111.1 74.5156 110.607 73.961C110.116 73.3975 109.74 72.8296 109.48 72.2572H109.307V83.2847H103.593ZM109.186 65.2543C109.186 66.4797 109.356 67.5484 109.696 68.4607C110.036 69.3729 110.527 70.0839 111.171 70.5938C111.814 71.0946 112.598 71.3451 113.519 71.3451C114.449 71.3451 115.235 71.0901 115.879 70.5804C116.523 70.0616 117.011 69.3461 117.341 68.4338C117.681 67.5127 117.851 66.4528 117.851 65.2543C117.851 64.065 117.686 63.0185 117.354 62.1152C117.023 61.212 116.535 60.5054 115.892 59.9955C115.248 59.4858 114.456 59.2308 113.519 59.2308C112.589 59.2308 111.802 59.4769 111.158 59.9688C110.522 60.4607 110.036 61.1583 109.696 62.0615C109.356 62.9648 109.186 64.0291 109.186 65.2543ZM127.493 83.2847V54.9514H133.127V58.4126H133.382C133.632 57.8581 133.994 57.2946 134.468 56.7222C134.951 56.1409 135.577 55.658 136.345 55.2733C137.124 54.8798 138.089 54.683 139.242 54.683C140.745 54.683 142.131 55.0765 143.4 55.8636C144.67 56.6418 145.685 57.8178 146.445 59.3919C147.205 60.957 147.586 62.9201 147.586 65.2813C147.586 67.5797 147.214 69.5206 146.472 71.1036C145.738 72.6777 144.738 73.8716 143.468 74.6854C142.207 75.4904 140.794 75.8929 139.23 75.8929C138.12 75.8929 137.177 75.7095 136.4 75.3427C135.631 74.9761 134.999 74.5156 134.508 73.961C134.016 73.3975 133.641 72.8296 133.382 72.2572H133.207V83.2847H127.493ZM133.086 65.2543C133.086 66.4797 133.256 67.5484 133.596 68.4607C133.936 69.3729 134.428 70.0839 135.072 70.5938C135.716 71.0946 136.498 71.3451 137.418 71.3451C138.348 71.3451 139.135 71.0901 139.779 70.5804C140.422 70.0616 140.91 69.3461 141.241 68.4338C141.581 67.5127 141.751 66.4528 141.751 65.2543C141.751 64.065 141.585 63.0185 141.255 62.1152C140.924 61.212 140.437 60.5054 139.793 59.9955C139.149 59.4858 138.358 59.2308 137.418 59.2308C136.488 59.2308 135.701 59.4769 135.058 59.9688C134.424 60.4607 133.936 61.1583 133.596 62.0615C133.256 62.9648 133.086 64.0291 133.086 65.2543ZM175.144 55.9843C175.036 54.9021 174.576 54.0614 173.763 53.4623C172.949 52.8631 171.844 52.5634 170.45 52.5634C169.501 52.5634 168.702 52.6976 168.049 52.9659C167.396 53.2253 166.895 53.5875 166.547 54.0526C166.207 54.5176 166.037 55.0454 166.037 55.6356C166.019 56.1274 166.122 56.5568 166.346 56.9234C166.577 57.2901 166.895 57.6076 167.298 57.8759C167.699 58.1353 168.165 58.3634 168.692 58.5601C169.22 58.7479 169.783 58.9089 170.382 59.043L172.85 59.6333C174.049 59.9017 175.148 60.2593 176.15 60.7065C177.151 61.1537 178.018 61.7039 178.751 62.3566C179.485 63.0096 180.053 63.7786 180.456 64.6641C180.866 65.5495 181.076 66.5646 181.085 67.7094C181.076 69.3908 180.648 70.8486 179.798 72.0828C178.958 73.3081 177.741 74.2606 176.15 74.9404C174.567 75.6111 172.658 75.9466 170.423 75.9466C168.206 75.9466 166.274 75.6065 164.629 74.9269C162.992 74.2472 161.715 73.241 160.792 71.9084C159.881 70.5668 159.403 68.9079 159.357 66.9314H164.977C165.04 67.8525 165.304 68.6216 165.768 69.2388C166.242 69.847 166.873 70.3076 167.66 70.6205C168.456 70.9246 169.355 71.0767 170.356 71.0767C171.339 71.0767 172.194 70.9336 172.918 70.6474C173.651 70.3613 174.219 69.9632 174.62 69.4535C175.023 68.9437 175.225 68.3578 175.225 67.696C175.225 67.0788 175.041 66.5602 174.674 66.1397C174.317 65.7195 173.79 65.3617 173.092 65.0666C172.403 64.7714 171.558 64.5032 170.557 64.2617L167.566 63.5104C165.251 62.9469 163.422 62.066 162.08 60.8675C160.739 59.669 160.073 58.0548 160.083 56.0246C160.073 54.3611 160.515 52.9078 161.409 51.6646C162.313 50.4214 163.551 49.4511 165.125 48.7535C166.698 48.0558 168.486 47.707 170.49 47.707C172.529 47.707 174.307 48.0558 175.827 48.7535C177.357 49.4511 178.547 50.4214 179.395 51.6646C180.245 52.9078 180.682 54.3477 180.711 55.9843H175.144ZM195.842 54.9514V59.2444H183.436V54.9514H195.842ZM186.253 50.0145H191.966V69.2254C191.966 69.753 192.046 70.1645 192.208 70.4596C192.369 70.7458 192.592 70.947 192.878 71.0633C193.173 71.1795 193.513 71.2377 193.898 71.2377C194.166 71.2377 194.433 71.2154 194.702 71.1707C194.97 71.117 195.176 71.0767 195.319 71.0499L196.218 75.3026C195.931 75.392 195.529 75.4948 195.011 75.6111C194.492 75.7363 193.862 75.8123 193.119 75.8392C191.742 75.8929 190.535 75.7095 189.498 75.2891C188.471 74.8688 187.67 74.2159 187.097 73.3304C186.525 72.445 186.244 71.3271 186.253 69.9766V50.0145ZM208.652 75.9599C206.568 75.9599 204.766 75.5171 203.246 74.6317C201.735 73.7373 200.568 72.4943 199.745 70.9023C198.923 69.3014 198.511 67.4456 198.511 65.3349C198.511 63.2063 198.923 61.3461 199.745 59.7541C200.568 58.1532 201.735 56.91 203.246 56.0246C204.766 55.1302 206.568 54.683 208.652 54.683C210.734 54.683 212.531 55.1302 214.043 56.0246C215.563 56.91 216.734 58.1532 217.557 59.7541C218.379 61.3461 218.791 63.2063 218.791 65.3349C218.791 67.4456 218.379 69.3014 217.557 70.9023C216.734 72.4943 215.563 73.7373 214.043 74.6317C212.531 75.5171 210.734 75.9599 208.652 75.9599ZM208.678 71.5328C209.626 71.5328 210.417 71.2645 211.052 70.7279C211.686 70.1823 212.164 69.44 212.487 68.5009C212.817 67.5619 212.982 66.4931 212.982 65.2946C212.982 64.0963 212.817 63.0275 212.487 62.0884C212.164 61.1493 211.686 60.407 211.052 59.8614C210.417 59.3158 209.626 59.043 208.678 59.043C207.722 59.043 206.916 59.3158 206.263 59.8614C205.619 60.407 205.133 61.1493 204.801 62.0884C204.48 63.0275 204.319 64.0963 204.319 65.2946C204.319 66.4931 204.48 67.5619 204.801 68.5009C205.133 69.44 205.619 70.1823 206.263 70.7279C206.916 71.2645 207.722 71.5328 208.678 71.5328ZM222.505 75.5574V54.9514H228.044V58.5467H228.26C228.634 57.2678 229.265 56.3018 230.15 55.649C231.036 54.9871 232.056 54.6563 233.209 54.6563C233.494 54.6563 233.802 54.6742 234.134 54.7099C234.465 54.7457 234.756 54.7949 235.006 54.8574V59.9285C234.737 59.848 234.366 59.7764 233.892 59.7139C233.418 59.6513 232.986 59.6199 232.592 59.6199C231.75 59.6199 231 59.8033 230.339 60.1699C229.686 60.5277 229.166 61.0286 228.782 61.6725C228.406 62.3165 228.219 63.0588 228.219 63.8995V75.5574H222.505ZM246.389 75.9599C244.271 75.9599 242.447 75.5307 240.917 74.672C239.397 73.8046 238.226 72.5793 237.403 70.9962C236.58 69.4042 236.169 67.5216 236.169 65.3483C236.169 63.2287 236.58 61.3684 237.403 59.7676C238.226 58.1666 239.384 56.919 240.876 56.0246C242.379 55.1302 244.14 54.683 246.161 54.683C247.52 54.683 248.786 54.9021 249.956 55.3403C251.137 55.7698 252.166 56.4181 253.042 57.2856C253.927 58.1532 254.616 59.2444 255.107 60.559C255.6 61.8647 255.845 63.3941 255.845 65.1471V66.7167H238.45V63.175H250.466C250.466 62.3522 250.288 61.6233 249.93 60.9883C249.572 60.3533 249.077 59.857 248.441 59.4992C247.816 59.1325 247.088 58.9492 246.255 58.9492C245.388 58.9492 244.618 59.1504 243.948 59.5529C243.287 59.9464 242.768 60.4786 242.393 61.1493C242.017 61.811 241.825 62.549 241.816 63.3628V66.73C241.816 67.7497 242.003 68.6306 242.379 69.3729C242.763 70.1152 243.304 70.6876 244.002 71.0901C244.699 71.4925 245.526 71.6939 246.483 71.6939C247.117 71.6939 247.7 71.6043 248.227 71.4255C248.754 71.2467 249.206 70.9783 249.582 70.6205C249.956 70.2629 250.243 69.8247 250.44 69.3058L255.724 69.6547C255.456 70.9246 254.906 72.0337 254.075 72.9816C253.252 73.9207 252.188 74.6541 250.882 75.1819C249.587 75.7005 248.088 75.9599 246.389 75.9599Z" fill="black"/>
</svg>
