<svg width="238" height="206" viewBox="0 0 238 206" fill="none" xmlns="http://www.w3.org/2000/svg">
<path d="M0.150391 85.3576H11.7009L27.1684 123.13H27.7794L43.2486 85.3576H54.7974V137.485H45.7417V101.673H45.2571L30.8588 137.332H24.0907L9.6907 101.597H9.2079V137.485H0.150391V85.3576ZM64.6696 137.485V98.3895H73.8781V137.485H64.6696ZM69.2993 92.8408C67.8403 92.8408 66.585 92.3572 65.5334 91.3899C64.4817 90.4057 63.9568 89.2264 63.9568 87.852C63.9568 86.4607 64.4817 85.2813 65.5334 84.314C66.585 83.3299 67.8403 82.8379 69.2993 82.8379C70.7758 82.8379 72.0294 83.3299 73.0652 84.314C74.1169 85.2813 74.6418 86.4607 74.6418 87.852C74.6418 89.2264 74.1169 90.4057 73.0652 91.3899C72.0294 92.3572 70.7758 92.8408 69.2993 92.8408ZM92.5584 85.3576V137.485H83.3499V85.3576H92.5584ZM111.239 85.3576V137.485H102.028V85.3576H111.239ZM120.709 137.485V98.3895H129.919V137.485H120.709ZM125.34 92.8408C123.881 92.8408 122.626 92.3572 121.574 91.3899C120.523 90.4057 119.996 89.2264 119.996 87.852C119.996 86.4607 120.523 85.2813 121.574 84.314C122.626 83.3299 123.881 82.8379 125.34 82.8379C126.815 82.8379 128.07 83.3299 129.104 84.314C130.156 85.2813 130.683 86.4607 130.683 87.852C130.683 89.2264 130.156 90.4057 129.104 91.3899C128.07 92.3572 126.815 92.8408 125.34 92.8408Z" fill="black"/>
<path d="M1.37695 205.101V166.005H10.1799V172.649H10.6381C11.451 170.409 12.7993 168.661 14.6832 167.405C16.5653 166.133 18.8125 165.496 21.425 165.496C24.0708 165.496 26.3005 166.141 28.1158 167.431C29.947 168.703 31.2357 170.443 31.9818 172.649H32.3891C33.2547 170.477 34.7136 168.746 36.766 167.456C38.8342 166.15 41.2851 165.496 44.1188 165.496C47.7144 165.496 50.6481 166.633 52.92 168.907C55.1936 171.181 56.3295 174.498 56.3295 178.859V205.101H47.0947V180.285C47.0947 177.858 46.4503 176.085 45.1616 174.965C43.8712 173.828 42.2947 173.26 40.4284 173.26C38.2075 173.26 36.4693 173.955 35.214 175.347C33.9763 176.721 33.3565 178.511 33.3565 180.717V205.101H24.3253V179.902C24.3253 177.884 23.7144 176.272 22.4924 175.067C21.2898 173.862 19.7114 173.26 17.7609 173.26C16.4389 173.26 15.2345 173.599 14.1477 174.278C13.0627 174.939 12.1971 175.882 11.5528 177.102C10.9085 178.307 10.5872 179.716 10.5872 181.329V205.101H1.37695ZM76.9183 205.89C74.441 205.89 72.2113 205.449 70.2274 204.567C68.2593 203.668 66.6985 202.343 65.545 200.596C64.4091 198.848 63.8403 196.693 63.8403 194.132C63.8403 191.925 64.2475 190.1 65.0622 188.658C65.8768 187.216 66.9864 186.062 68.3945 185.196C69.8025 184.332 71.3879 183.679 73.1523 183.238C74.9326 182.779 76.7743 182.447 78.6739 182.244C80.9633 182.007 82.8208 181.794 84.2447 181.608C85.6703 181.404 86.7043 181.098 87.3487 180.691C88.0106 180.268 88.3406 179.614 88.3406 178.732V178.58C88.3406 176.662 87.7718 175.177 86.6359 174.125C85.5 173.073 83.8637 172.547 81.7253 172.547C79.471 172.547 77.6802 173.039 76.3582 174.023C75.052 175.007 74.1706 176.17 73.7124 177.51L65.1131 176.289C65.7908 173.913 66.9109 171.927 68.4717 170.332C70.0325 168.72 71.9391 167.516 74.1952 166.718C76.4512 165.904 78.9443 165.496 81.6744 165.496C83.5582 165.496 85.4315 165.717 87.2978 166.158C89.1641 166.599 90.8671 167.329 92.412 168.347C93.9553 169.348 95.1931 170.714 96.1253 172.445C97.0751 174.176 97.5509 176.34 97.5509 178.936V205.101H88.697V199.731H88.3916C87.8315 200.817 87.0432 201.834 86.0249 202.784C85.0242 203.719 83.7618 204.474 82.2344 205.05C80.7245 205.61 78.9531 205.89 76.9183 205.89ZM79.3095 199.12C81.1582 199.12 82.7611 198.755 84.1182 198.026C85.4736 197.279 86.5183 196.294 87.2469 195.073C87.993 193.851 88.367 192.519 88.367 191.077V186.47C88.0773 186.707 87.5857 186.928 86.8905 187.132C86.2128 187.336 85.449 187.513 84.601 187.666C83.7531 187.819 82.9138 187.954 82.0817 188.073C81.2512 188.191 80.5297 188.293 79.9204 188.379C78.5458 188.565 77.3168 188.871 76.23 189.294C75.145 189.719 74.2882 190.313 73.6615 191.077C73.0329 191.824 72.7204 192.79 72.7204 193.979C72.7204 195.676 73.3384 196.956 74.5779 197.822C75.8157 198.686 77.3923 199.12 79.3095 199.12ZM106.81 205.101V166.005H115.741V172.521H116.147C116.86 170.265 118.082 168.525 119.811 167.304C121.558 166.065 123.551 165.445 125.789 165.445C126.298 165.445 126.867 165.471 127.494 165.522C128.138 165.556 128.674 165.615 129.097 165.7V174.176C128.707 174.04 128.087 173.921 127.239 173.82C126.409 173.701 125.603 173.641 124.823 173.641C123.143 173.641 121.635 174.006 120.294 174.736C118.972 175.448 117.929 176.442 117.165 177.714C116.402 178.987 116.021 180.454 116.021 182.117V205.101H106.81ZM143.611 192.834L143.586 181.71H145.061L159.105 166.005H169.867L152.591 185.247H150.685L143.611 192.834ZM135.215 205.101V152.974H144.426V205.101H135.215ZM159.74 205.101L147.02 187.309L153.229 180.819L170.757 205.101H159.74ZM191.695 205.865C187.777 205.865 184.393 205.05 181.544 203.422C178.712 201.776 176.532 199.45 175.006 196.447C173.478 193.427 172.717 189.872 172.717 185.783C172.717 181.761 173.478 178.232 175.006 175.194C176.549 172.14 178.703 169.764 181.467 168.067C184.232 166.353 187.48 165.496 191.211 165.496C193.62 165.496 195.893 165.887 198.03 166.667C200.184 167.431 202.084 168.619 203.729 170.231C205.39 171.843 206.696 173.896 207.646 176.391C208.595 178.868 209.071 181.82 209.071 185.247V188.073H177.041V181.863H200.244C200.226 180.097 199.843 178.529 199.097 177.153C198.351 175.762 197.308 174.668 195.969 173.87C194.647 173.073 193.102 172.674 191.339 172.674C189.455 172.674 187.803 173.132 186.377 174.049C184.954 174.948 183.842 176.136 183.045 177.612C182.264 179.071 181.865 180.675 181.85 182.423V187.843C181.85 190.118 182.264 192.069 183.096 193.698C183.926 195.31 185.089 196.549 186.581 197.414C188.073 198.263 189.82 198.686 191.822 198.686C193.161 198.686 194.374 198.5 195.459 198.128C196.546 197.736 197.487 197.169 198.284 196.422C199.081 195.676 199.684 194.75 200.091 193.647L208.688 194.615C208.146 196.888 207.112 198.874 205.586 200.571C204.076 202.25 202.142 203.557 199.785 204.49C197.428 205.407 194.731 205.865 191.695 205.865ZM236.375 166.005V173.132H213.912V166.005H236.375ZM219.458 156.639H228.666V193.341C228.666 194.581 228.854 195.532 229.226 196.192C229.616 196.837 230.125 197.279 230.754 197.516C231.38 197.753 232.076 197.873 232.839 197.873C233.415 197.873 233.942 197.831 234.416 197.745C234.908 197.66 235.282 197.583 235.536 197.516L237.088 204.72C236.597 204.888 235.893 205.076 234.976 205.28C234.077 205.482 232.975 205.602 231.668 205.635C229.361 205.703 227.285 205.356 225.436 204.592C223.587 203.812 222.119 202.607 221.034 200.978C219.965 199.348 219.44 197.313 219.458 194.869V156.639Z" fill="#00B709"/>
<path d="M52.6505 55.9265L6.09008 69.9609C3.07032 70.8742 0.03125 68.6084 0.03125 65.4642V19.3036C0.03125 17.2309 1.38312 15.4042 3.38459 14.807L49.945 0.77258C52.9648 -0.140796 56.0038 2.12507 56.0038 5.26919V51.4299C56.0038 53.5025 54.6344 55.3293 52.6505 55.9265Z" fill="#00B709"/>
<path d="M38.4814 45.4056H17.5538C17.15 45.4056 16.834 45.0895 16.834 44.6855V31.02C16.834 30.616 17.15 30.2998 17.5538 30.2998H38.4814C38.8853 30.2998 39.2012 30.616 39.2012 31.02V44.6855C39.2012 45.0719 38.8853 45.4056 38.4814 45.4056Z" fill="white"/>
<path d="M41.7994 28.4908H14.2372C13.57 28.4908 13.2364 27.4897 13.6929 26.9101L16.6073 23.2213C16.7478 23.0456 16.9409 22.9404 17.1516 22.9404H38.8868C39.0975 22.9404 39.2906 23.0456 39.431 23.2213L42.3437 26.9101C42.8002 27.5073 42.4666 28.4908 41.7994 28.4908Z" fill="white"/>
</svg>
