<svg width="75" height="93" viewBox="0 0 75 93" fill="none" xmlns="http://www.w3.org/2000/svg">
<path d="M69.7846 73.385L8.03328 91.9895C4.0283 93.2003 0 90.1966 0 86.0286V24.8362C0 22.0886 1.79287 19.6669 4.44733 18.8753L66.1987 0.270723C70.2037 -0.940087 74.232 2.06365 74.232 6.23163V67.4241C74.232 70.1484 72.4391 72.5933 69.7846 73.385Z" fill="#00B709"/>
<path d="M50.9944 59.4136H23.2388C22.7032 59.4136 22.2842 58.9945 22.2842 58.4589V40.3434C22.2842 39.8078 22.7032 39.3887 23.2388 39.3887H50.9944C51.5299 39.3887 51.949 39.8078 51.949 40.3434V58.4589C51.949 58.9945 51.5299 59.4136 50.9944 59.4136Z" fill="white"/>
<path d="M55.3944 36.9908H18.8374C17.9526 36.9908 17.5102 35.6636 18.1156 34.8952L21.9808 30.0054C22.1671 29.7725 22.4232 29.6328 22.7026 29.6328H51.5292C51.8086 29.6328 52.0648 29.7725 52.251 30.0054L56.1162 34.8952C56.7216 35.6869 56.2792 36.9908 55.3944 36.9908Z" fill="white"/>
</svg>
